<svg width="116" height="126" viewBox="0 0 116 126" fill="none" xmlns="http://www.w3.org/2000/svg">
<path fill-rule="evenodd" clip-rule="evenodd" d="M59.0773 117.905V118.012L46.2426 119.322L38.6466 122.465H27.6455L15.5966 113.559L3.02392 97.0573V83.1749V75.8409L7.73869 66.6733L9.83414 55.4102V44.4091L12.7154 25.55L27.6455 9.83408L42.5756 4.85738L57.5534 2.47995V1.97614L74.0551 4.59545L88.9852 9.57215L103.915 25.2881L106.797 44.1471V55.1483L108.892 66.4113L113.607 75.5789V82.913V96.7954L101.034 113.297L88.9852 122.203H77.9841L70.3881 119.06L59.0773 117.905Z" fill="white"/>
<path fill-rule="evenodd" clip-rule="evenodd" d="M17.2314 24.1093C12.1145 33.156 10.8677 43.9387 11.4532 52.7149C11.5022 53.4498 12.1186 54.0105 12.8552 54.0105V54.0105H57.1216H59.6215C59.6215 54.0105 59.6216 54.0106 59.6216 54.0107V54.0107C59.6216 54.0107 59.6217 54.0108 59.6217 54.0108H102.338V54.0108C103.075 54.0108 103.691 53.45 103.74 52.7152C104.326 43.939 103.079 33.1563 97.9618 24.1096C91.928 13.4418 80.2857 4.77676 58.6298 5.00436C58.6171 5.00449 58.6064 5.01459 58.606 5.02729V5.02729C58.6055 5.04041 58.5945 5.05067 58.5814 5.05021C58.2529 5.03872 57.9267 5.02922 57.6026 5.02167C57.2747 5.02926 56.9445 5.03886 56.6121 5.05048C56.5988 5.05094 56.5877 5.04056 56.5872 5.02728V5.02728C56.5868 5.01443 56.5759 5.00421 56.5631 5.00407C34.9074 4.77656 23.2652 13.4416 17.2314 24.1093ZM57.603 0.0204506C33.7352 -0.501848 20.014 9.03373 12.8793 21.6477C6.04872 33.7241 5.47762 48.2237 7.04469 58.3319C7.11284 58.7715 7.08918 59.2178 6.96591 59.6453C6.27271 62.0491 5.30013 65.2491 4.30589 68.1825C3.72035 69.9101 3.13734 71.5153 2.60754 72.7997C2.03643 74.1842 1.63911 74.9105 1.47346 75.1175C0.904026 75.8293 0.634904 76.7123 0.481336 77.3691C0.310514 78.0997 0.200696 78.9338 0.128772 79.7997C-0.0155447 81.5371 -0.0261302 83.6481 0.0360897 85.8202C0.160915 90.178 0.587057 95.0313 0.941353 98.1756V98.1756C0.983742 98.5518 1.11102 98.9135 1.31358 99.2334V99.2334C3.86664 103.264 8.26982 109.369 13.2405 114.656C15.7262 117.3 18.4024 119.791 21.1042 121.721C23.7716 123.626 26.6575 125.125 29.5429 125.518C36.012 126.4 39.9457 124.724 43.7345 123.032L43.9924 122.917C47.4835 121.357 50.9603 119.803 56.9799 119.779H58.0716C64.1785 119.779 67.6824 121.345 71.2008 122.917L71.4587 123.032C75.2475 124.724 79.1812 126.401 85.6503 125.519C88.5357 125.125 91.4216 123.627 94.089 121.721C96.7908 119.792 99.467 117.3 101.953 114.656C106.923 109.37 111.327 103.265 113.88 99.2336V99.2336C114.082 98.9138 114.209 98.5521 114.252 98.1759V98.1759C114.606 95.0315 115.032 90.1783 115.157 85.8205C115.219 83.6484 115.209 81.5374 115.064 79.7999C114.993 78.9341 114.883 78.1 114.712 77.3694C114.558 76.7126 114.289 75.8296 113.72 75.1178C113.554 74.9107 113.157 74.1845 112.586 72.8C112.056 71.5156 111.473 69.9104 110.887 68.1828C109.893 65.2494 108.92 62.0494 108.227 59.6456C108.104 59.2181 108.08 58.7718 108.149 58.3322C109.716 48.224 109.144 33.7244 102.314 21.648C95.1805 9.03627 81.4629 -0.49815 57.603 0.0204506ZM57.5904 85.1691L55.6562 85.1251C55.6098 85.1241 55.5716 85.1614 55.5716 85.2079V85.2079C55.5716 85.2502 55.5412 85.2855 55.4992 85.2901C51.2762 85.7515 43.9629 87.721 36.579 92.8046C35.2845 93.6959 33.5147 93.5494 32.4613 92.3831L22.6771 81.5506C22.1791 80.9993 21.9034 80.2828 21.9034 79.5398V77.2017C21.9034 75.4049 23.49 73.9926 25.2702 73.7484C25.4109 73.729 25.551 73.7082 25.6902 73.686C28.529 73.2338 31.8234 72.0953 35.233 70.7807C36.8038 70.175 38.4143 69.527 40.0532 68.8675C45.5081 66.6727 51.2787 64.3507 56.9585 63.0379C57.378 62.9409 57.8139 62.9409 58.2334 63.0379C63.9136 64.3507 69.6847 66.6728 75.14 68.8678L75.14 68.8678C76.779 69.5273 78.3894 70.1753 79.9603 70.7809C83.3698 72.0956 86.6642 73.2341 89.503 73.6863C89.6422 73.7085 89.7823 73.7293 89.923 73.7486C91.7032 73.9928 93.2898 75.4052 93.2898 77.202V79.5401C93.2898 80.283 93.0141 80.9996 92.5161 81.5509L82.7319 92.3834C81.6785 93.5497 79.9087 93.6962 78.6142 92.8049C71.2305 87.7214 63.9173 85.7519 59.6943 85.2905C59.6521 85.2858 59.6216 85.2504 59.6216 85.2079V85.2079C59.6216 85.1613 59.5833 85.1238 59.5367 85.1249L57.5904 85.1691ZM13.1286 65.7324C13.2893 66.0198 13.4534 66.3022 13.6199 66.5788C14.5579 68.137 14.132 70.2177 12.5452 71.1063L11.6336 71.6167V71.6167C10.8441 72.0589 10.3552 72.8931 10.3552 73.798V73.798V80.3463V80.3463C10.3552 81.538 11.1963 82.564 12.3649 82.7978V82.7978L17.1295 83.7507C17.7613 83.877 18.3356 84.2034 18.7674 84.6816L32.2164 99.5714V99.5714C33.1273 100.58 34.6771 100.676 35.7057 99.7878V99.7878C41.1385 95.0958 46.8275 92.5563 51.1501 91.2866C52.9385 90.7613 54.6216 92.1713 54.6216 94.0353V112.054C54.6216 113.634 53.3928 114.925 51.832 115.165C47.6412 115.809 44.645 117.148 41.9836 118.338L41.6962 118.466C38.1509 120.049 35.2744 121.254 30.2185 120.564C28.4939 120.329 26.39 119.352 24.0103 117.652C21.665 115.977 19.2368 113.734 16.8833 111.231C12.5983 106.674 8.72189 101.427 6.2327 97.6352C5.97655 97.2451 5.81999 96.8008 5.77211 96.3366C5.46289 93.3382 5.13803 89.3073 5.03404 85.6771C4.97402 83.5819 4.98963 81.6821 5.11161 80.2136C5.17284 79.4765 5.25619 78.9088 5.35003 78.5074V78.5074C5.40779 78.2604 5.53681 78.0395 5.67783 77.8286C6.23841 76.9903 6.76531 75.8322 7.22975 74.7063C7.81752 73.2813 8.4394 71.5633 9.04128 69.7875C9.4702 68.5221 9.89406 67.2121 10.294 65.9361C10.6736 64.7251 12.5093 64.6247 13.1286 65.7324V65.7324ZM15.7511 75.0416C16.2671 74.7526 16.9034 75.1256 16.9034 75.7171V77.6621C16.9034 78.1507 16.4565 78.5171 15.9775 78.4213V78.4213C15.6156 78.3489 15.3552 78.0312 15.3552 77.6621V75.7171C15.3552 75.4369 15.5066 75.1785 15.7511 75.0416V75.0416ZM24.9036 68.7483C22.5973 69.1157 21.6044 68.7532 21.1633 68.3541C20.2079 67.3515 18.7275 65.5011 17.4929 63.2926C17.3667 63.0668 17.2444 62.8397 17.1266 62.6118C16.2248 60.8676 17.62 59.0105 19.5835 59.0105H36.997C39.5389 59.0105 40.2964 63.3759 37.9386 64.3256V64.3256L37.9383 64.3257C36.3663 64.9589 34.8577 65.5665 33.4342 66.1154C30.0335 67.4267 27.1725 68.3869 24.9036 68.7483ZM102.065 65.7327C101.904 66.0201 101.74 66.3025 101.573 66.5791C100.635 68.1372 101.061 70.2179 102.648 71.1066L103.56 71.617V71.617C104.349 72.0592 104.838 72.8934 104.838 73.7983V73.7983V80.3466V80.3466C104.838 81.5383 103.997 82.5643 102.828 82.798V82.798L98.0637 83.751C97.4319 83.8773 96.8576 84.2037 96.4258 84.6818L82.9768 99.5717V99.5717C82.0659 100.58 80.5161 100.676 79.4875 99.7881V99.7881C74.0547 95.0961 68.3657 92.5566 64.0431 91.2869C62.2547 90.7615 60.5716 92.1716 60.5716 94.0355V112.055C60.5716 113.634 61.8004 114.926 63.3612 115.165C67.552 115.809 70.5482 117.149 73.2096 118.338L73.497 118.467C77.0423 120.049 79.9188 121.254 84.9747 120.564C86.6993 120.329 88.8032 119.352 91.1829 117.653C93.5282 115.978 95.9564 113.735 98.3099 111.232C102.595 106.674 106.471 101.427 108.961 97.6355C109.217 97.2454 109.373 96.8011 109.421 96.3369C109.73 93.3385 110.055 89.3076 110.159 85.6773C110.219 83.5822 110.204 81.6823 110.082 80.2138C110.02 79.4767 109.937 78.9091 109.843 78.5077V78.5077C109.785 78.2607 109.656 78.0398 109.515 77.8289C108.955 76.9905 108.428 75.8325 107.963 74.7066C107.376 73.2816 106.754 71.5636 106.152 69.7878C105.723 68.5223 105.299 67.2124 104.899 65.9364C104.52 64.7254 102.684 64.6249 102.065 65.7327V65.7327ZM99.4422 75.0419C98.9261 74.7529 98.2898 75.1259 98.2898 75.7173V77.6624C98.2898 78.1509 98.7367 78.5173 99.2157 78.4215V78.4215C99.5776 78.3492 99.8381 78.0314 99.8381 77.6624V75.7173C99.8381 75.4371 99.6866 75.1788 99.4422 75.0419V75.0419ZM90.2896 68.7486C92.5959 69.116 93.5888 68.7534 94.0299 68.3544C94.9853 67.3518 96.4657 65.5014 97.7003 63.2929C97.8265 63.0671 97.9488 62.84 98.0666 62.6121C98.9684 60.8679 97.5733 59.0108 95.6097 59.0108H78.196C75.6542 59.0108 74.8967 63.3761 77.2545 64.3258V64.3258L77.2546 64.3259C78.8267 64.9591 80.3354 65.5668 81.759 66.1157C85.1597 67.4269 88.0208 68.3872 90.2896 68.7486Z" fill="#404040"/>
<path d="M97.3724 57.5001H17.537C15.3292 57.5001 13.8778 59.8044 14.8312 61.7957L17.502 67.374C18.1518 68.7311 17.6958 70.3595 16.4359 71.1818L13.8297 72.8828C13.1548 73.3233 12.6855 74.0169 12.5276 74.8072L12.0078 77.4083C11.7161 78.8677 12.5385 80.3203 13.9399 80.8212L15.2714 81.2971C17.0275 81.9248 18.9247 80.815 19.2384 78.9766L20.1185 73.8173C20.305 72.7241 21.0794 71.8229 22.1321 71.4741L57.9434 59.6067C58.5713 59.3987 59.2504 59.4039 59.875 59.6218L91.0573 70.4969C91.9964 70.8244 92.7122 71.5961 92.9683 72.5571L94.7685 79.3133C95.2239 81.0225 97.0515 81.9686 98.71 81.3539L100.543 80.6746C101.719 80.2385 102.5 79.1163 102.5 77.8616V75.3361C102.5 74.2469 101.91 73.2434 100.958 72.7141L98.2518 71.2096C96.799 70.4018 96.2799 68.5668 97.0944 67.1177L99.9877 61.97C101.112 59.9702 99.6665 57.5001 97.3724 57.5001Z" fill="black"/>
</svg>
